<svg xmlns="http://www.w3.org/2000/svg" xmlns:xlink="http://www.w3.org/1999/xlink" width="135.319" height="130" viewBox="0 0 135.319 130">
  <defs>
    <clipPath id="clip-path">
      <rect id="Rectangle_155" data-name="Rectangle 155" width="135.319" height="130" fill="none"/>
    </clipPath>
  </defs>
  <g id="Group_28" data-name="Group 28" transform="translate(0 0)">
    <g id="Group_27" data-name="Group 27" transform="translate(0 0)" clip-path="url(#clip-path)">
      <path id="Path_79" data-name="Path 79" d="M4.3,22.123V78.466a4.061,4.061,0,0,0,4.061,4.061H109.083a4.058,4.058,0,0,0,4.058-4.061V22.123Z" transform="translate(8.937 45.937)" fill="#d9aa1e"/>
      <path id="Path_80" data-name="Path 80" d="M59.444,22.848A22.41,22.41,0,0,1,50.55,40.719h-26.9a22.61,22.61,0,0,1-6.974-8.731,22.36,22.36,0,1,1,42.772-9.14" transform="translate(30.574 1.037)" fill="#d9aa1e"/>
      <path id="Path_81" data-name="Path 81" d="M.512,16.6H132.73l.012.012V29.534a4.06,4.06,0,0,1-4.061,4.058H4.561A4.06,4.06,0,0,1,.5,29.534V16.612Z" transform="translate(1.038 34.469)" fill="none" stroke="#144b5e" stroke-linecap="round" stroke-width="1"/>
      <path id="Path_82" data-name="Path 82" d="M4.3,22.123V78.466a4.061,4.061,0,0,0,4.061,4.061H109.083a4.058,4.058,0,0,0,4.058-4.061V22.123Z" transform="translate(8.937 45.937)" fill="none" stroke="#144b5e" stroke-linecap="round" stroke-width="1"/>
      <path id="Path_83" data-name="Path 83" d="M132.325,28.772H.66A.1.1,0,0,1,.6,28.594L22.193,11.606a4.049,4.049,0,0,1,2.507-.871H46.082a22.631,22.631,0,0,0,6.971,8.731h26.9A22.293,22.293,0,0,0,86.9,10.735h21.354a4.065,4.065,0,0,1,2.507.868l21.622,16.991A.1.1,0,0,1,132.325,28.772Z" transform="translate(1.164 22.29)" fill="none" stroke="#144b5e" stroke-linecap="round" stroke-width="1"/>
      <line id="Line_14" data-name="Line 14" x1="19.382" transform="translate(81.122 41.755)" fill="none" stroke="#144b5e" stroke-linecap="round" stroke-width="1"/>
      <line id="Line_15" data-name="Line 15" x1="19.41" transform="translate(34.81 41.755)" fill="none" stroke="#144b5e" stroke-linecap="round" stroke-width="1"/>
      <path id="Path_84" data-name="Path 84" d="M59.444,22.848A22.41,22.41,0,0,1,50.55,40.719h-26.9a22.61,22.61,0,0,1-6.974-8.731,22.36,22.36,0,1,1,42.772-9.14Z" transform="translate(30.574 1.037)" fill="none" stroke="#144b5e" stroke-linecap="round" stroke-width="1"/>
      <path id="Path_85" data-name="Path 85" d="M32.816,18.025a4.189,4.189,0,0,0-1.289-1.618,8.182,8.182,0,0,0-1.95-1.071c-.492-.166-1.015-.329-1.563-.5v-6.7a4.444,4.444,0,0,1,.548.135,7.818,7.818,0,0,1,1.566.661,4.141,4.141,0,0,1,1.181.932.831.831,0,0,0,.548.194,1.028,1.028,0,0,0,.8-.36,1.011,1.011,0,0,0,.329-.714,1.411,1.411,0,0,0-.551-1.043,6.152,6.152,0,0,0-2.387-1.507,9.849,9.849,0,0,0-2.03-.468V4.245a1.079,1.079,0,0,0-.3-.8,1.023,1.023,0,0,0-.8-.329A1.124,1.124,0,0,0,25.79,4.245V5.974a6.809,6.809,0,0,0-2.28.575,5.49,5.49,0,0,0-2.3,1.812,4.7,4.7,0,0,0-.824,2.747,5.2,5.2,0,0,0,.44,2.169,4.018,4.018,0,0,0,1.206,1.563,6.345,6.345,0,0,0,1.84,1.071,12.146,12.146,0,0,0,1.923.631v6.919a6.643,6.643,0,0,1-1.867-.5,7.69,7.69,0,0,1-2.332-1.591.932.932,0,0,0-.686-.3.985.985,0,0,0-.769.329,1.133,1.133,0,0,0-.329.8,1.156,1.156,0,0,0,.135.52,1.661,1.661,0,0,0,.3.412,9.955,9.955,0,0,0,2.966,1.923,9.412,9.412,0,0,0,2.581.575v2.553a1,1,0,0,0,.329.769,1.043,1.043,0,0,0,.769.329,1.127,1.127,0,0,0,.824-.329.983.983,0,0,0,.3-.769V25.547a6.751,6.751,0,0,0,2.086-.575A5.6,5.6,0,0,0,32.4,23.1a4.411,4.411,0,0,0,.852-2.689,5.559,5.559,0,0,0-.44-2.39M25.79,14.182a9.825,9.825,0,0,1-.96-.357,4.308,4.308,0,0,1-1.621-1.1,2.521,2.521,0,0,1-.6-1.7,2.442,2.442,0,0,1,.548-1.594,3.473,3.473,0,0,1,1.483-1.015,5.038,5.038,0,0,1,1.154-.3Zm4.639,7.879a3.52,3.52,0,0,1-1.538,1.071,4.057,4.057,0,0,1-.877.246v-6.15a5.164,5.164,0,0,1,.686.249,4.681,4.681,0,0,1,1.7,1.181,2.615,2.615,0,0,1,.6,1.809,2.418,2.418,0,0,1-.575,1.594" transform="translate(41.127 6.476)" fill="#144b5e"/>
    </g>
  </g>
</svg>
