<svg xmlns="http://www.w3.org/2000/svg" xmlns:xlink="http://www.w3.org/1999/xlink" width="145.507" height="108.465" viewBox="0 0 145.507 108.465">
  <defs>
    <clipPath id="clip-path">
      <rect id="Rectangle_154" data-name="Rectangle 154" width="145.507" height="108.465" fill="none"/>
    </clipPath>
  </defs>
  <g id="Group_26" data-name="Group 26" transform="translate(0 0)">
    <g id="Group_25" data-name="Group 25" transform="translate(0 0)" clip-path="url(#clip-path)">
      <path id="Path_71" data-name="Path 71" d="M84.563,93.848a1.164,1.164,0,0,1-1.152-1.176V64.629A10.986,10.986,0,0,0,72.525,53.542h-1.32A11,11,0,0,0,60.319,64.657V92.672a1.166,1.166,0,0,1-1.155,1.176H2.232A1.75,1.75,0,0,1,.5,92.08V88.431a1.763,1.763,0,0,1,1.669-1.768,1.766,1.766,0,0,0,1.768-1.74V27.55a5.462,5.462,0,0,1,5.388-5.5H41.241a2.556,2.556,0,0,0,2.529-2.582V12.814a5.462,5.462,0,0,1,5.388-5.5H94.572a5.462,5.462,0,0,1,5.388,5.5v6.624a2.579,2.579,0,0,0,2.557,2.61h31.861a5.437,5.437,0,0,1,5.388,5.5V84.923a1.737,1.737,0,0,0,1.732,1.74h.027a1.779,1.779,0,0,1,1.732,1.768V92.08a1.761,1.761,0,0,1-1.732,1.768Z" transform="translate(0.875 13.212)" fill="#d9aa1e"/>
      <path id="Path_72" data-name="Path 72" d="M26.461,19.623V1.309A9.767,9.767,0,0,1,32.025.663c1.7.337,2.359,1.016,4.044,1.356a9.59,9.59,0,0,0,5.215-.505.4.4,0,0,1,.539.368v9.313a.434.434,0,0,1-.3.407,11.052,11.052,0,0,1-5.2.356c-2.084-.379-2.906-1.218-4.866-1.42a9.081,9.081,0,0,0-5,1.033" transform="translate(46.281 0.902)" fill="none" stroke="#144b5e" stroke-linecap="round" stroke-width="1"/>
      <path id="Path_73" data-name="Path 73" d="M22.795,58.579H11.5A5.958,5.958,0,0,1,5.6,52.559V24.291A5.958,5.958,0,0,1,11.5,18.27h11.3a5.96,5.96,0,0,1,5.9,6.021V52.559a5.96,5.96,0,0,1-5.9,6.021" transform="translate(9.803 33.01)" fill="#fff"/>
      <path id="Path_74" data-name="Path 74" d="M56.1,58.579h-11.3a5.958,5.958,0,0,1-5.894-6.021V24.291a5.958,5.958,0,0,1,5.894-6.021H56.1A5.96,5.96,0,0,1,62,24.291V52.559a5.96,5.96,0,0,1-5.9,6.021" transform="translate(68.064 33.01)" fill="#fff"/>
      <path id="Path_75" data-name="Path 75" d="M45.112,22.225a11.4,11.4,0,1,0-22.8,0,11.4,11.4,0,1,0,22.8,0" transform="translate(39.028 19.124)" fill="#fff"/>
      <path id="Rectangle_152" data-name="Rectangle 152" d="M2.145,0h18.8a2.144,2.144,0,0,1,2.144,2.144v36.02a2.145,2.145,0,0,1-2.145,2.145H2.145A2.145,2.145,0,0,1,0,38.164V2.145A2.145,2.145,0,0,1,2.145,0Z" transform="translate(15.409 51.279)" fill="none" stroke="#144b5e" stroke-width="1"/>
      <path id="Rectangle_153" data-name="Rectangle 153" d="M2.145,0h18.8a2.144,2.144,0,0,1,2.144,2.144v36.02a2.145,2.145,0,0,1-2.145,2.145H2.145A2.145,2.145,0,0,1,0,38.164V2.145A2.145,2.145,0,0,1,2.145,0Z" transform="translate(106.978 51.279)" fill="none" stroke="#144b5e" stroke-width="1"/>
      <path id="Path_76" data-name="Path 76" d="M84.563,93.848a1.164,1.164,0,0,1-1.152-1.176V64.629A10.986,10.986,0,0,0,72.525,53.542h-1.32A11,11,0,0,0,60.319,64.657V92.672a1.166,1.166,0,0,1-1.155,1.176H2.232A1.75,1.75,0,0,1,.5,92.08V88.431a1.763,1.763,0,0,1,1.669-1.768,1.766,1.766,0,0,0,1.768-1.74V27.55a5.462,5.462,0,0,1,5.388-5.5H41.241a2.556,2.556,0,0,0,2.529-2.582V12.814a5.462,5.462,0,0,1,5.388-5.5H94.572a5.462,5.462,0,0,1,5.388,5.5v6.624a2.579,2.579,0,0,0,2.557,2.61h31.861a5.437,5.437,0,0,1,5.388,5.5V84.923a1.737,1.737,0,0,0,1.732,1.74h.027a1.779,1.779,0,0,1,1.732,1.768V92.08a1.761,1.761,0,0,1-1.732,1.768Z" transform="translate(0.875 13.212)" fill="none" stroke="#144b5e" stroke-width="1"/>
      <path id="Path_77" data-name="Path 77" d="M45.112,22.225a11.4,11.4,0,1,0-22.8,0,11.4,11.4,0,1,0,22.8,0Z" transform="translate(39.028 19.124)" fill="none" stroke="#144b5e" stroke-width="1"/>
      <path id="Path_78" data-name="Path 78" d="M26.461,11.793V20a.043.043,0,0,0,.041.042h6.257" transform="translate(46.281 21.307)" fill="none" stroke="#144b5e" stroke-linecap="round" stroke-width="1"/>
    </g>
  </g>
</svg>
