<svg width="188" height="188" viewBox="0 0 188 188" fill="none" xmlns="http://www.w3.org/2000/svg">
    <circle cx="94" cy="94" r="94" fill="#1D4F5A"/>
    <g clip-path="url(#clip0_0_1)">
    <path d="M84.0232 53.0901L45.6367 91.4766L48.1337 93.9735L86.5202 55.587L84.0232 53.0901Z" fill="white"/>
    <path d="M93.492 46.1172L78.9609 50.0104L89.5988 60.6483L93.492 46.1172Z" fill="white"/>
    <path d="M55.2664 129.181C60.3107 129.181 64.4 125.092 64.4 120.048C64.4 115.003 60.3107 110.914 55.2664 110.914C50.2221 110.914 46.1328 115.003 46.1328 120.048C46.1328 125.092 50.2221 129.181 55.2664 129.181Z" fill="white"/>
    <path d="M54.8593 150.999L46.1336 131.922C46.1336 131.922 37 132.125 37 140.446V150.999H54.8593Z" fill="white"/>
    <path d="M55.6719 150.999L64.3994 131.922C64.3994 131.922 73.5329 132.125 73.5329 140.446V150.999H55.6719Z" fill="white"/>
    <path d="M48.8828 131.922L55.2655 146.128L61.6483 131.922H48.8828Z" fill="white"/>
    <path d="M131.735 56.2672C136.779 56.2672 140.869 52.1779 140.869 47.1336C140.869 42.0892 136.779 38 131.735 38C126.691 38 122.602 42.0892 122.602 47.1336C122.602 52.1779 126.691 56.2672 131.735 56.2672Z" fill="white"/>
    <path d="M131.33 78.0907L122.602 59.0078C122.602 59.0078 113.469 59.2109 113.469 67.5323V78.0854L131.33 78.0907Z" fill="white"/>
    <path d="M132.141 78.0907L140.866 59.0078C140.866 59.0078 150 59.2162 150 67.5375V78.0907H132.141Z" fill="white"/>
    <path d="M125.352 59.0156L131.734 73.2218L138.117 59.0156H125.352Z" fill="white"/>
    <path d="M93.5008 92.7203C98.5451 92.7203 102.634 88.631 102.634 83.5867C102.634 78.5424 98.5451 74.4531 93.5008 74.4531C88.4564 74.4531 84.3672 78.5424 84.3672 83.5867C84.3672 88.631 88.4564 92.7203 93.5008 92.7203Z" fill="white"/>
    <path d="M93.0954 114.546L84.368 95.4688C84.368 95.4688 75.2344 95.6718 75.2344 103.993V114.546H93.0954Z" fill="white"/>
    <path d="M93.9062 114.546L102.634 95.4688C102.634 95.4688 111.767 95.6718 111.767 103.993V114.546H93.9062Z" fill="white"/>
    <path d="M87.1172 95.4688L93.4999 109.675L99.8827 95.4688H87.1172Z" fill="white"/>
    </g>
    <defs>
    <clipPath id="clip0_0_1">
    <rect width="113" height="113" fill="white" transform="translate(37 38)"/>
    </clipPath>
    </defs>
    </svg>
    