<svg width="188" height="188" viewBox="0 0 188 188" fill="none" xmlns="http://www.w3.org/2000/svg">
    <circle cx="94" cy="94" r="94" fill="#1D4F5A"/>
    <g clip-path="url(#clip0_0_1)">
    <path d="M102.842 99.1684C107.097 97.1411 108.485 91.1789 105.957 85.8822C103.424 80.5677 97.9183 77.8927 93.664 79.92C89.4098 81.9473 88.0213 87.9095 90.5543 93.224C93.0873 98.5296 98.5926 101.205 102.842 99.1684Z" fill="white"/>
    <path d="M115.593 67.4531C119.683 93.0541 101.464 112.245 101.464 112.245C101.464 112.245 86.4429 86.8302 61.1836 79.1601C110.318 115.088 82.3528 159.88 82.3528 159.88H96.5751C96.5751 159.88 129.638 102.827 115.593 67.4531Z" fill="white"/>
    <path d="M87.8637 70.3784C87.5887 69.9702 87.3092 69.5355 87.0298 69.0564C85.73 66.8117 85.1355 64.7267 85.1355 64.7267C85.1355 64.7267 86.6349 66.2971 87.9347 68.5285C88.2053 69.0032 88.4404 69.469 88.6578 69.9126C88.8619 68.8435 89.1014 66.6476 88.0634 64.8376C86.6305 62.3578 83.33 61.5859 83.33 61.5859C83.33 61.5859 82.3452 64.8332 83.7781 67.3174C84.8161 69.1274 86.839 70.019 87.8637 70.3784Z" fill="white"/>
    <path d="M120.48 89.2068C121.306 89.9166 123.089 91.2208 125.169 91.2208C128.035 91.2208 130.351 88.741 130.351 88.741C130.351 88.741 128.04 86.2656 125.169 86.2656C123.089 86.2656 121.306 87.5699 120.48 88.2796C120.973 88.2441 121.487 88.2175 122.042 88.2175C124.633 88.2175 126.749 88.7321 126.749 88.7321C126.749 88.7321 124.633 89.2556 122.042 89.2511C121.483 89.2733 120.973 89.2423 120.48 89.2068Z" fill="white"/>
    <path d="M110.074 68.5363C111.365 66.2916 112.873 64.7257 112.873 64.7257C112.873 64.7257 112.274 66.8195 110.974 69.0642C110.699 69.5344 110.42 69.978 110.136 70.3862C111.174 70.0268 113.192 69.1307 114.226 67.3341C115.663 64.8454 114.687 61.5938 114.687 61.5938C114.687 61.5938 111.378 62.3789 109.95 64.8499C108.911 66.6509 109.142 68.8424 109.351 69.9248C109.555 69.4768 109.794 69.011 110.074 68.5363Z" fill="white"/>
    <path d="M97.843 55.0221C97.843 49.2507 99.0008 44.5795 99.0008 44.5795C99.0008 44.5795 100.163 49.2596 100.163 55.0221C100.163 56.2421 100.105 57.3955 100.017 58.4867C101.605 56.6546 104.502 52.6843 104.502 48.053C104.502 41.6827 99.0008 36.5234 99.0008 36.5234C99.0008 36.5234 93.5 41.6827 93.5 48.053C93.5 52.6843 96.3968 56.6502 97.9805 58.4867C97.9006 57.3955 97.843 56.2465 97.843 55.0221Z" fill="white"/>
    <path d="M61.0155 73.1663C65.0302 75.482 69.91 74.9541 72.2922 74.4971C71.3074 74.0358 70.2737 73.4946 69.2224 72.8913C64.2273 70.0122 60.7582 66.6718 60.7582 66.6718C60.7582 66.6718 65.3851 68.0026 70.3802 70.8861C71.436 71.4983 72.4075 72.1194 73.3125 72.7449C72.5229 70.447 70.5399 65.9576 66.5208 63.6419C61.0111 60.4523 53.7891 62.6349 53.7891 62.6349C53.7891 62.6349 55.5014 69.9856 61.0155 73.1663Z" fill="white"/>
    <path d="M136.983 104.323C132.973 102.012 128.093 102.531 125.711 102.988C126.7 103.454 127.73 103.995 128.785 104.598C133.776 107.482 137.25 110.818 137.25 110.818C137.25 110.818 132.623 109.491 127.623 106.608C126.567 105.991 125.596 105.37 124.695 104.745C125.485 107.043 127.468 111.528 131.478 113.843C136.988 117.033 144.214 114.85 144.214 114.85C144.214 114.85 142.493 107.504 136.983 104.323Z" fill="white"/>
    <path d="M73.3052 104.76C72.4002 105.376 71.4332 105.997 70.3774 106.614C65.3823 109.489 60.7509 110.833 60.7509 110.833C60.7509 110.833 64.22 107.488 69.2151 104.604C70.2753 103.988 71.3045 103.469 72.2893 102.994C69.9116 102.533 65.0229 102.005 61.0127 104.329C55.4986 107.51 53.7773 114.856 53.7773 114.856C53.7773 114.856 60.9994 117.039 66.5135 113.858C70.5326 111.534 72.5156 107.049 73.3052 104.76Z" fill="white"/>
    <path d="M124.699 72.7263C125.6 72.1097 126.571 71.4886 127.636 70.8764C132.627 67.993 137.253 66.6621 137.253 66.6621C137.253 66.6621 133.789 70.0025 128.789 72.8816C127.734 73.4938 126.7 74.0261 125.724 74.4875C128.097 74.9488 132.986 75.4812 136.987 73.1566C142.506 69.9715 144.223 62.6252 144.223 62.6252C144.223 62.6252 137.005 60.4471 131.495 63.6322C127.472 65.9479 125.484 70.4373 124.699 72.7263Z" fill="white"/>
    <path d="M77.535 54.2982C76.7099 53.0871 75.8714 51.7829 75.0508 50.3633C71.1824 43.6737 69.3947 37.4631 69.3947 37.4631C69.3947 37.4631 73.8752 42.1121 77.7391 48.8196C78.5597 50.2303 79.2651 51.6099 79.895 52.9363C80.5161 49.7467 81.2214 43.2034 78.1161 37.8268C73.8486 30.4318 64.0003 28.125 64.0003 28.125C64.0003 28.125 61.0769 37.8046 65.3445 45.1952C68.4498 50.5763 74.4741 53.2335 77.535 54.2982Z" fill="white"/>
    <path d="M120.472 123.195C121.298 124.406 122.145 125.706 122.961 127.121C126.834 133.838 128.617 140.03 128.617 140.03C128.617 140.03 124.137 135.377 120.264 128.678C119.448 127.259 118.738 125.879 118.108 124.562C117.5 127.751 116.79 134.281 119.891 139.662C124.163 147.053 134.007 149.369 134.007 149.369C134.007 149.369 136.944 139.68 132.672 132.289C129.558 126.913 123.538 124.256 120.472 123.195Z" fill="white"/>
    <path d="M53.7891 90.3026C46.0569 90.3026 39.7887 88.7411 39.7887 88.7411C39.7887 88.7411 46.0569 87.1796 53.7891 87.1796C55.4305 87.1796 56.9787 87.2683 58.4382 87.3748C55.985 85.2454 50.6705 81.3594 44.4511 81.3594C35.9204 81.3638 29 88.7411 29 88.7411C29 88.7411 35.9248 96.1228 44.4511 96.1184C50.6661 96.1184 55.9806 92.2368 58.4338 90.1119C56.9743 90.2228 55.4216 90.3026 53.7891 90.3026Z" fill="white"/>
    <path d="M153.553 81.375C147.342 81.375 142.028 85.2433 139.57 87.3815C141.034 87.2706 142.587 87.1863 144.215 87.1908C151.952 87.1908 158.215 88.7479 158.215 88.7479C158.215 88.7479 151.952 90.3094 144.224 90.3094C142.587 90.3094 141.034 90.2251 139.57 90.1186C142.023 92.2435 147.342 96.1252 153.553 96.1252C162.088 96.1252 169 88.7567 169 88.7567C169 88.7567 162.079 81.3661 153.553 81.375Z" fill="white"/>
    <path d="M77.7459 128.679C73.8776 135.378 69.3971 140.032 69.3971 140.032C69.3971 140.032 71.1804 133.821 75.0487 127.122C75.8738 125.712 76.7123 124.412 77.5418 123.188C74.472 124.252 68.4478 126.914 65.3425 132.295C61.0705 139.685 63.9983 149.374 63.9983 149.374C63.9983 149.374 73.851 147.067 78.1185 139.677C81.2283 134.296 80.5229 127.748 79.9063 124.567C79.2631 125.88 78.5577 127.247 77.7459 128.679Z" fill="white"/>
    <path d="M120.263 48.8084C124.127 42.1098 128.607 37.4607 128.607 37.4607C128.607 37.4607 126.824 43.6669 122.951 50.361C122.135 51.7673 121.297 53.0804 120.472 54.2914C123.537 53.2312 129.561 50.5695 132.662 45.1929C136.934 37.8023 134.006 28.1094 134.006 28.1094C134.006 28.1094 124.162 30.4206 119.89 37.8112C116.772 43.1922 117.482 49.7355 118.098 52.9207C118.737 51.612 119.438 50.2324 120.263 48.8084Z" fill="white"/>
    </g>
    <defs>
    <clipPath id="clip0_0_1">
    <rect width="140" height="140" fill="white" transform="translate(29 24)"/>
    </clipPath>
    </defs>
    </svg>
    