<svg width="188" height="188" viewBox="0 0 188 188" fill="none" xmlns="http://www.w3.org/2000/svg">
    <circle cx="94" cy="94" r="94" fill="#1D4F5A"/>
    <path d="M64.3474 98.8484V108.661H98.8173V116.006C98.8173 118.682 98.154 121.187 97.0628 123.452H102.242L128.442 106.23C132.322 103.676 137.274 103.462 141.368 105.667C143.374 106.747 145.05 108.351 146.217 110.307C147.385 112.263 148.001 114.499 148 116.777C148 121.089 145.835 125.057 142.209 127.39L110.08 148.08H64.3474V153H39.7453V98.8484H64.3474ZM107.188 138.237L136.882 119.115C137.274 118.864 137.596 118.518 137.819 118.109C138.042 117.701 138.159 117.243 138.158 116.777C138.158 115.281 137.137 114.566 136.697 114.328C136.254 114.095 135.098 113.631 133.847 114.451L105.185 133.293H74.1452V123.452H74.2407V123.447H81.5332C84.7597 123.447 87.5153 121.38 88.5446 118.502H64.3461V138.237H107.188ZM49.5862 143.158H54.5066V108.689H49.5862V143.158ZM131.498 92.6956C134.251 87.8922 135.705 82.4053 135.705 76.8256C135.705 59.1904 121.361 44.8422 103.731 44.8422C86.0971 44.8422 71.7543 59.1904 71.7543 76.8256C71.7543 82.3999 73.2074 87.8868 75.9589 92.6902L67.4205 97.5823C63.816 91.2895 61.9134 84.1127 61.9134 76.8256C61.9134 53.7627 80.6735 35 103.731 35C126.788 35 145.546 53.7627 145.546 76.8256C145.546 84.1181 143.641 91.2963 140.036 97.5864L131.498 92.6956Z" fill="white"/>
    <path d="M117.499 72.408L124.062 79.7382L105.666 96.2163L82.7441 69.8489L90.1739 63.3906L106.54 82.2233L117.499 72.408Z" fill="white"/>
    </svg>
    
    