<svg width="32" height="32" viewBox="0 0 32 32" fill="none" xmlns="http://www.w3.org/2000/svg">
    <path d="M24.5711 21.4286C23.5533 21.4286 22.614 21.7857 21.8783 22.3821L14.4783 17.0286C14.6022 16.3485 14.6022 15.6515 14.4783 14.9714L21.8783 9.61786C22.614 10.2143 23.5533 10.5714 24.5711 10.5714C26.9354 10.5714 28.8569 8.65 28.8569 6.28571C28.8569 3.92143 26.9354 2 24.5711 2C22.2069 2 20.2854 3.92143 20.2854 6.28571C20.2854 6.7 20.3426 7.09643 20.4533 7.475L13.4247 12.5643C12.3819 11.1821 10.7247 10.2857 8.85686 10.2857C5.69972 10.2857 3.14258 12.8429 3.14258 16C3.14258 19.1571 5.69972 21.7143 8.85686 21.7143C10.7247 21.7143 12.3819 20.8179 13.4247 19.4357L20.4533 24.525C20.3426 24.9036 20.2854 25.3036 20.2854 25.7143C20.2854 28.0786 22.2069 30 24.5711 30C26.9354 30 28.8569 28.0786 28.8569 25.7143C28.8569 23.35 26.9354 21.4286 24.5711 21.4286ZM24.5711 4.42857C25.5962 4.42857 26.4283 5.26071 26.4283 6.28571C26.4283 7.31071 25.5962 8.14286 24.5711 8.14286C23.5462 8.14286 22.714 7.31071 22.714 6.28571C22.714 5.26071 23.5462 4.42857 24.5711 4.42857ZM8.85686 19.1429C7.12472 19.1429 5.71401 17.7321 5.71401 16C5.71401 14.2679 7.12472 12.8571 8.85686 12.8571C10.589 12.8571 11.9997 14.2679 11.9997 16C11.9997 17.7321 10.589 19.1429 8.85686 19.1429ZM24.5711 27.5714C23.5462 27.5714 22.714 26.7393 22.714 25.7143C22.714 24.6893 23.5462 23.8571 24.5711 23.8571C25.5962 23.8571 26.4283 24.6893 26.4283 25.7143C26.4283 26.7393 25.5962 27.5714 24.5711 27.5714Z" fill="#1D4F5A"/>
    </svg>
    