<svg
              width="99"
              height="99"
              viewBox="0 0 99 99"
              fill="none"
              xmlns="http://www.w3.org/2000/svg"
            >
              <path
                d="M90.8251 17.4531H8.17641C4.89247 17.4531 2.23047 20.1151 2.23047 23.3991V47.088C2.23047 50.372 4.89247 53.034 8.17641 53.034H72.0356V50.135C72.0356 47.8773 73.8657 46.0472 76.1234 46.0472C78.3811 46.0472 80.2113 47.8773 80.2113 50.135V53.034H90.8251C94.109 53.034 96.771 50.372 96.771 47.088V23.3994C96.771 20.1154 94.109 17.4531 90.8251 17.4531Z"
                fill="#1D4F5A"
              />
              <path
                d="M91.9725 74.7891H72.0352V81.5416H91.9725V74.7891Z"
                fill="#1D4F5A"
              />
              <path
                d="M90.8243 15.2266H8.17568C3.66746 15.2266 0 18.894 0 23.4022V47.0909C0 51.5991 3.66746 55.2666 8.17568 55.2666H69.8051V61.5627C65.5603 61.5627 63.0571 64.5874 63.0571 67.8806C63.0571 71.0504 65.436 74.1982 69.8051 74.1982C69.8051 77.0698 69.8051 78.5979 69.8051 81.5396C69.8051 82.771 70.8034 83.7694 72.0348 83.7694H91.9722C93.2036 83.7694 94.2019 82.771 94.2019 81.5396C94.2019 78.44 94.2019 68.5118 94.2019 65.5397C94.2019 61.4486 90.8737 58.1203 86.7823 58.1203H82.4405V55.2669H90.8243C95.3325 55.2669 99 51.5994 99 47.0912V23.4025C99 18.894 95.3325 15.2266 90.8243 15.2266ZM89.7422 79.3096H74.2643V77.0165H89.7422V79.3096ZM86.7823 62.5795C88.4144 62.5795 89.7425 63.9072 89.7425 65.5394V72.5571H74.2646V71.9681C74.2646 70.7367 73.2662 69.7384 72.0348 69.7384H69.3746C68.3501 69.7384 67.5165 68.9048 67.5165 67.8803C67.5165 66.8558 68.3501 66.0219 69.3746 66.0219H72.0348C73.2662 66.0219 74.2646 65.0236 74.2646 63.7922C74.2646 60.994 74.2646 52.9135 74.2646 50.1376C74.2646 49.1131 75.0982 48.2792 76.1227 48.2792C77.1472 48.2792 77.9808 49.1128 77.9808 50.1376C77.9808 56.1712 77.9808 54.3548 77.9808 60.3495C77.9808 61.5809 78.9791 62.5792 80.2105 62.5792H86.7823V62.5795ZM94.5405 47.0909C94.5405 49.1402 92.8736 50.8071 90.8243 50.8071H82.4402V50.1379C82.4402 46.6542 79.6061 43.82 76.1227 43.82C72.6392 43.82 69.8051 46.6542 69.8051 50.1379V50.8071H8.17568C6.12641 50.8071 4.45946 49.1402 4.45946 47.0909V23.4022C4.45946 21.353 6.12641 19.686 8.17568 19.686H90.8243C92.8736 19.686 94.5405 21.353 94.5405 23.4022V47.0909Z"
                fill="#CFCFCF"
              />
              <path
                d="M18.9565 28.8672H16.9159C16.3799 28.8672 15.9648 29.2822 15.9648 29.8182V40.0209C15.9648 40.5397 16.3799 40.9719 16.9159 40.9719H18.9565C22.294 40.9719 24.9917 38.257 24.9917 34.902C24.9917 31.5821 22.294 28.8672 18.9565 28.8672ZM18.9565 39.0526H17.8845V30.7865H18.9565C21.2392 30.7865 23.072 32.6369 23.072 34.9023C23.072 37.2025 21.2392 39.0354 18.9565 39.0526Z"
                fill="#CFCFCF"
              />
              <path
                d="M33.5541 28.5234C30.2276 28.5234 27.6055 31.3278 27.6055 34.7488C27.6055 38.3331 30.3932 40.9742 33.5541 40.9742C36.7182 40.9742 39.4337 38.1597 39.4337 34.7488C39.4337 31.4821 36.8612 28.5234 33.5541 28.5234ZM33.5541 39.0029C31.3901 39.0029 29.5768 37.1293 29.5768 34.7488C29.5768 32.49 31.2459 30.4948 33.5541 30.4948C35.7419 30.4948 37.4624 32.4772 37.4624 34.7488C37.4624 37.1638 35.5748 39.0029 33.5541 39.0029Z"
                fill="#CFCFCF"
              />
              <path
                d="M50.6221 29.0368C50.1033 29.0368 49.6883 29.469 49.6883 29.9706V37.0953L44.1026 29.3656C43.5877 28.6387 42.3528 29.0156 42.408 29.9536C42.408 29.9709 42.408 29.9709 42.408 29.9709V40.018C42.408 40.5368 42.8231 40.9691 43.3591 40.9691C43.8606 40.9691 44.2929 40.5368 44.2929 40.018V32.841L49.8265 40.519C49.8438 40.5535 49.8782 40.5879 49.9127 40.6227C50.5035 41.3309 51.5728 40.8615 51.5728 40.0174V29.9703C51.5731 29.469 51.1409 29.0368 50.6221 29.0368Z"
                fill="#CFCFCF"
              />
              <path
                d="M60.7075 29.4853C60.3692 28.6579 59.2017 28.6853 58.8744 29.4853L55.0526 39.6707C54.6334 40.8864 56.3818 41.5089 56.851 40.3625L57.6983 38.1144H61.9006L62.7479 40.3625C62.9471 40.9105 63.5729 41.0701 63.9582 40.9158C64.4597 40.7255 64.702 40.1723 64.529 39.6707L60.7075 29.4853ZM58.3901 36.2123L59.7909 32.4943L61.1915 36.2123H58.3901Z"
                fill="#CFCFCF"
              />
              <path
                d="M72.5704 28.8672H65.1864C63.9048 28.8672 63.9503 30.7868 65.1864 30.7868H67.9186V40.0212C67.9186 41.2737 69.8207 41.2889 69.8207 40.0212V30.7868H72.5704C73.0892 30.7868 73.5215 30.3373 73.5215 29.8185C73.5212 29.2822 73.0889 28.8672 72.5704 28.8672Z"
                fill="#CFCFCF"
              />
              <path
                d="M82.9806 30.7865C83.4819 30.7865 83.9317 30.3543 83.9317 29.8182C83.9317 29.2822 83.4819 28.8672 82.9806 28.8672H77.3778C77.3433 28.8672 77.3433 28.8672 77.3433 28.8672H77.3261C76.79 28.8672 76.375 29.2822 76.375 29.8182V40.0209C76.375 40.5397 76.79 40.9719 77.3261 40.9719L77.3433 40.9547C77.3433 40.9547 77.3433 40.9719 77.3778 40.9719H82.9806C83.4819 40.9719 83.9317 40.5397 83.9317 40.0209C83.9317 39.4849 83.4819 39.0526 82.9806 39.0526H78.2943V35.8706H82.3236C82.8424 35.8706 83.2747 35.4384 83.2747 34.9023C83.2747 34.4008 82.8424 33.9513 82.3236 33.9513H78.2943V30.7865H82.9806Z"
                fill="#CFCFCF"
              />
            </svg>