<svg width="79" height="79" viewBox="0 0 79 79" fill="none" xmlns="http://www.w3.org/2000/svg">
    <path d="M0 41.5916V52.2834C0 53.9561 1.35609 55.3125 3.02909 55.3125H12.8551V43.7961C12.8551 39.7893 13.8279 36.0079 15.5405 32.6652C11.9864 32.4541 8.77654 30.9499 6.37243 28.6172C2.49729 31.6178 0 36.3116 0 41.5916Z" fill="#477079"/>
    <path d="M23.1095 23.8758C21.5735 21.3539 20.6883 18.3944 20.6883 15.2322C20.6883 13.3064 21.0205 11.4579 21.624 9.73578C20.1036 8.80359 18.3157 8.26562 16.4016 8.26562C10.875 8.26562 6.39453 12.7455 6.39453 18.2724C6.39453 23.7991 10.875 28.2795 16.4016 28.2795C17.1627 28.2795 17.9029 28.1916 18.6155 28.0305C19.9337 26.466 21.4441 25.0705 23.1095 23.8758Z" fill="#477079"/>
    <path d="M50.2934 44.196C51.9155 44.196 53.503 44.5564 54.9481 45.2293L57.4416 43.4055C57.3146 36.7371 53.9422 30.8662 48.8344 27.3047C45.8432 30.15 41.8029 31.9021 37.3586 31.9021C32.9143 31.9021 28.874 30.15 25.8825 27.305C20.6757 30.9355 17.2656 36.9649 17.2656 43.7942V56.8912C17.2656 58.9405 18.9269 60.6017 20.9761 60.6017H40.6123C39.7339 59.0163 39.2318 57.1949 39.2318 55.2579C39.2318 49.158 44.1941 44.196 50.2934 44.196Z" fill="#477079"/>
    <path d="M37.3557 27.4927C44.1256 27.4927 49.6138 22.0045 49.6138 15.2346C49.6138 8.46468 44.1256 2.97656 37.3557 2.97656C30.5858 2.97656 25.0977 8.46468 25.0977 15.2346C25.0977 22.0045 30.5858 27.4927 37.3557 27.4927Z" fill="#477079"/>
    <path d="M72.6414 63.3125C71.6313 63.3125 70.6801 63.5541 69.8317 63.9733L57.9173 55.2585L69.7449 46.6066C70.6142 47.0529 71.5972 47.3095 72.6411 47.3095C75.9569 47.3095 78.6764 44.7708 78.9701 41.5324C79.312 37.7272 76.3055 34.5938 72.6411 34.5938C69.1299 34.5938 66.2831 37.4403 66.2831 40.9518C66.2831 41.2428 66.3096 41.5271 66.3475 41.8075L54.4831 50.4859C53.3189 49.4649 51.83 48.9005 50.2916 48.9005C46.7804 48.9005 43.9336 51.747 43.9336 55.2585C43.9336 58.7697 46.7804 61.6165 50.2916 61.6165C51.8417 61.6165 53.3281 61.0459 54.4831 60.0309L66.3619 68.7198C66.3152 69.0308 66.2831 69.3465 66.2831 69.6705C66.2831 73.1817 69.1299 76.0285 72.6411 76.0285C76.1429 76.0285 78.9995 73.1902 78.9995 69.6705C78.9998 66.1696 76.1615 63.3125 72.6414 63.3125Z" fill="#477079"/>
    </svg>
    