<svg width="105" height="97" viewBox="0 0 105 97" fill="none" xmlns="http://www.w3.org/2000/svg">
    <path d="M100.035 95.1562H4.87891V50.8594H24.5666L52.457 22.9688L80.3483 50.8594H100.035V95.1562Z" fill="#1D4F5A"/>
    <path d="M62.3008 75.4688H42.6133V95.1562H62.3008V75.4688Z" fill="white"/>
    <path d="M61.8906 68.9062H43.0234C42.7968 68.9062 42.6133 69.0898 42.6133 69.3164V75.4687H62.3008V69.3164C62.3008 69.0898 62.1172 68.9062 61.8906 68.9062Z" fill="#477079"/>
    <path d="M67.5972 9.84375L70.2712 5.83201C70.6061 5.32895 70.6381 4.68173 70.3529 4.14812C70.0676 3.6145 69.5118 3.28125 68.9062 3.28125H52.5C51.5931 3.28125 50.8594 4.01502 50.8594 4.92187V14.7656C50.8594 15.6725 51.5931 16.4062 52.5 16.4062H68.9062C69.5118 16.4062 70.0678 16.073 70.3531 15.5394C70.6383 15.0058 70.6061 14.3585 70.2715 13.8555L67.5972 9.84375Z" fill="#477079"/>
    <path d="M52.5 24.6094C51.5931 24.6094 50.8594 23.8756 50.8594 22.9687V1.64062C50.8594 0.733769 51.5931 0 52.5 0C53.4069 0 54.1406 0.733769 54.1406 1.64062V22.9687C54.1406 23.8756 53.4069 24.6094 52.5 24.6094Z" fill="#5C546A"/>
    <path d="M59.141 30.5439C59.3941 29.9303 59.9933 29.5312 60.6568 29.5312H91.8286C92.3893 29.5312 92.9117 29.8179 93.2129 30.2907L104.697 48.3375C105.019 48.8439 105.039 49.4831 104.752 50.0085C104.464 50.5325 103.912 50.8592 103.313 50.8592H78.7036C78.2679 50.8592 77.8513 50.6861 77.5437 50.3785L59.4969 32.3316C59.0272 31.8624 58.8861 31.1575 59.141 30.5439Z" fill="#477079"/>
    <path d="M45.8126 30.5439C45.5593 29.9301 44.9601 29.5312 44.2969 29.5312H13.125C12.5643 29.5312 12.042 29.8179 11.7407 30.2907L0.256367 48.3375C-0.0656059 48.8439 -0.0848832 49.4831 0.201816 50.0085C0.490361 50.5325 1.04141 50.8594 1.64064 50.8594H26.25C26.6858 50.8594 27.1023 50.6863 27.4099 50.3787L45.4568 32.3318C45.9262 31.8624 46.0673 31.1575 45.8126 30.5439Z" fill="#477079"/>
    <path d="M80.3693 52.4778C79.9495 52.4778 79.5297 52.3176 79.2094 51.9971L52.501 25.289L25.7929 51.9971C25.152 52.638 24.1137 52.638 23.4728 51.9971C22.832 51.3562 22.832 50.3179 23.4728 49.677L51.3411 21.8088C51.982 21.1679 53.0203 21.1679 53.6612 21.8088L81.5294 49.677C82.1703 50.3179 82.1703 51.3562 81.5294 51.9971C81.2087 52.3174 80.7891 52.4778 80.3693 52.4778Z" fill="#477079"/>
    <path d="M52.5 60.7031C57.9365 60.7031 62.3437 56.2959 62.3437 50.8594C62.3437 45.4228 57.9365 41.0156 52.5 41.0156C47.0634 41.0156 42.6562 45.4228 42.6562 50.8594C42.6562 56.2959 47.0634 60.7031 52.5 60.7031Z" fill="white"/>
    <path d="M52.5 44.2969C51.5931 44.2969 50.8594 45.0306 50.8594 45.9375V49.2187H47.5781C46.6713 49.2187 45.9375 49.9525 45.9375 50.8594C45.9375 51.7662 46.6713 52.5 47.5781 52.5H52.5C53.4069 52.5 54.1406 51.7662 54.1406 50.8594V45.9375C54.1406 45.0306 53.4069 44.2969 52.5 44.2969Z" fill="#5C546A"/>
    <path d="M77.0664 61.5234C77.0664 59.2581 75.2301 57.4219 72.9648 57.4219C70.6996 57.4219 68.8633 59.2581 68.8633 61.5234C68.8633 61.8044 68.8922 62.0786 68.9459 62.3437H68.8633V68.9062H77.0664V62.3437H76.9838C77.0377 62.0786 77.0664 61.8044 77.0664 61.5234Z" fill="#477079"/>
    <path d="M73.0078 55.7812C69.8418 55.7812 67.2656 58.3574 67.2656 61.5234V68.9062C67.2656 69.8131 67.9994 70.5469 68.9062 70.5469H77.1094C78.0162 70.5469 78.75 69.8131 78.75 68.9062V61.5234C78.75 58.3574 76.1738 55.7812 73.0078 55.7812ZM73.0078 59.0625C74.3648 59.0625 75.4687 60.1664 75.4687 61.5234V62.3437H70.5469V61.5234C70.5469 60.1664 71.6508 59.0625 73.0078 59.0625ZM70.5469 67.2656V65.625H75.4687V67.2656H70.5469Z" fill="white"/>
    <path d="M36.0937 77.1094H27.8906V86.9531H36.0937V77.1094Z" fill="#477079"/>
    <path d="M36.0937 75.4688H27.8906C26.9838 75.4688 26.25 76.2025 26.25 77.1094V86.9531C26.25 87.86 26.9838 88.5937 27.8906 88.5937H36.0937C37.0006 88.5937 37.7344 87.86 37.7344 86.9531V77.1094C37.7344 76.2025 37.0006 75.4688 36.0937 75.4688ZM34.4531 78.75V80.3906H29.5312V78.75H34.4531ZM29.5312 85.3125V83.6719H34.4531V85.3125H29.5312Z" fill="white"/>
    <path d="M21.2852 77.1094H13.082V86.9531H21.2852V77.1094Z" fill="#477079"/>
    <path d="M21.2852 75.4688H13.082C12.1752 75.4688 11.4414 76.2025 11.4414 77.1094V86.9531C11.4414 87.86 12.1752 88.5937 13.082 88.5937H21.2852C22.192 88.5937 22.9258 87.86 22.9258 86.9531V77.1094C22.9258 76.2025 22.192 75.4688 21.2852 75.4688ZM19.6445 78.75V80.3906H14.7227V78.75H19.6445ZM14.7227 85.3125V83.6719H19.6445V85.3125H14.7227Z" fill="white"/>
    <path d="M91.875 77.1094H83.6719V86.9531H91.875V77.1094Z" fill="#477079"/>
    <path d="M91.875 75.4688H83.6719C82.765 75.4688 82.0312 76.2025 82.0312 77.1094V86.9531C82.0312 87.86 82.765 88.5937 83.6719 88.5937H91.875C92.7819 88.5937 93.5156 87.86 93.5156 86.9531V77.1094C93.5156 76.2025 92.7819 75.4688 91.875 75.4688ZM90.2344 78.75V80.3906H85.3125V78.75H90.2344ZM85.3125 85.3125V83.6719H90.2344V85.3125H85.3125Z" fill="white"/>
    <path d="M77.0664 77.1094H68.8633V86.9531H77.0664V77.1094Z" fill="#477079"/>
    <path d="M77.0664 75.4688H68.8633C67.9564 75.4688 67.2227 76.2025 67.2227 77.1094V86.9531C67.2227 87.86 67.9564 88.5937 68.8633 88.5937H77.0664C77.9733 88.5937 78.707 87.86 78.707 86.9531V77.1094C78.707 76.2025 77.9733 75.4688 77.0664 75.4688ZM75.4258 78.75V80.3906H70.5039V78.75H75.4258ZM70.5039 85.3125V83.6719H75.4258V85.3125H70.5039Z" fill="white"/>
    <path d="M91.7891 61.5234C91.7891 59.2581 89.9528 57.4219 87.6875 57.4219C85.4222 57.4219 83.5859 59.2581 83.5859 61.5234C83.5859 61.8044 83.6149 62.0786 83.6686 62.3437H83.5859V68.9062H91.7891V62.3437H91.7064C91.7601 62.0786 91.7891 61.8044 91.7891 61.5234Z" fill="#477079"/>
    <path d="M87.7305 55.7812C84.5645 55.7812 81.9883 58.3574 81.9883 61.5234V68.9062C81.9883 69.8131 82.7221 70.5469 83.6289 70.5469H91.832C92.7389 70.5469 93.4727 69.8131 93.4727 68.9062V61.5234C93.4727 58.3574 90.8965 55.7812 87.7305 55.7812ZM87.7305 59.0625C89.0875 59.0625 90.1914 60.1664 90.1914 61.5234V62.3437H85.2695V61.5234C85.2695 60.1664 86.3735 59.0625 87.7305 59.0625ZM85.2695 67.2656V65.625H90.1914V67.2656H85.2695Z" fill="white"/>
    <path d="M21.2422 61.5234C21.2422 59.2581 19.4059 57.4219 17.1406 57.4219C14.8753 57.4219 13.0391 59.2581 13.0391 61.5234C13.0391 61.8044 13.068 62.0786 13.1217 62.3437H13.0391V68.9062H21.2422V62.3437H21.1595C21.2133 62.0786 21.2422 61.8044 21.2422 61.5234Z" fill="#477079"/>
    <path d="M17.1836 55.7812C14.0176 55.7812 11.4414 58.3574 11.4414 61.5234V68.9062C11.4414 69.8131 12.1752 70.5469 13.082 70.5469H21.2852C22.192 70.5469 22.9258 69.8131 22.9258 68.9062V61.5234C22.9258 58.3574 20.3496 55.7812 17.1836 55.7812ZM17.1836 59.0625C18.5406 59.0625 19.6445 60.1664 19.6445 61.5234V62.3437H14.7227V61.5234C14.7227 60.1664 15.8266 59.0625 17.1836 59.0625ZM14.7227 67.2656V65.625H19.6445V67.2656H14.7227Z" fill="white"/>
    <path d="M35.957 61.5234C35.957 59.2581 34.1208 57.4219 31.8555 57.4219C29.5902 57.4219 27.7539 59.2581 27.7539 61.5234C27.7539 61.8044 27.7828 62.0786 27.8366 62.3437H27.7539V68.9062H35.957V62.3437H35.8744C35.9281 62.0786 35.957 61.8044 35.957 61.5234Z" fill="#477079"/>
    <path d="M31.9023 55.7812C28.7363 55.7812 26.1602 58.3574 26.1602 61.5234V68.9062C26.1602 69.8131 26.8939 70.5469 27.8008 70.5469H36.0039C36.9108 70.5469 37.6445 69.8131 37.6445 68.9062V61.5234C37.6445 58.3574 35.0681 55.7812 31.9023 55.7812ZM31.9023 59.0625C33.2593 59.0625 34.3633 60.1664 34.3633 61.5234V62.3437H29.4414V61.5234C29.4414 60.1664 30.5451 59.0625 31.9023 59.0625ZM29.4414 67.2656V65.625H34.3633V67.2656H29.4414Z" fill="white"/>
    <path d="M52.5 62.3437C46.1674 62.3437 41.0156 57.192 41.0156 50.8594C41.0156 44.5268 46.1674 39.375 52.5 39.375C58.8326 39.375 63.9844 44.5268 63.9844 50.8594C63.9844 57.192 58.8326 62.3437 52.5 62.3437ZM52.5 42.6562C47.977 42.6562 44.2969 46.336 44.2969 50.8594C44.2969 55.3828 47.977 59.0625 52.5 59.0625C57.023 59.0625 60.7031 55.3828 60.7031 50.8594C60.7031 46.336 57.023 42.6562 52.5 42.6562Z" fill="white"/>
    <path d="M59.0625 67.2656H45.9375C43.2235 67.2656 41.0156 69.4735 41.0156 72.1875V95.1562C41.0156 96.0631 41.7494 96.7969 42.6562 96.7969C43.5631 96.7969 44.2969 96.0631 44.2969 95.1562V77.1094H50.8145V95.1562H54.0957V77.1094H60.7031V95.1562C60.7031 96.0631 61.4369 96.7969 62.3437 96.7969C63.2506 96.7969 63.9844 96.0631 63.9844 95.1562V72.1875C63.9844 69.4735 61.7765 67.2656 59.0625 67.2656ZM60.7031 73.8281H44.2969V72.1875C44.2969 71.2823 45.0323 70.5469 45.9375 70.5469H59.0625C59.9677 70.5469 60.7031 71.2823 60.7031 72.1875V73.8281Z" fill="white"/>
    <path d="M103.359 96.7969H1.64062C0.733769 96.7969 0 96.0631 0 95.1562C0 94.2494 0.733769 93.5156 1.64062 93.5156H103.359C104.266 93.5156 105 94.2494 105 95.1562C105 96.0631 104.266 96.7969 103.359 96.7969Z" fill="#5C546A"/>
    </svg>
    